<svg xmlns="http://www.w3.org/2000/svg" width="17" height="16" viewBox="0 0 17 16" fill="none">
  <g clip-path="url(#clip0_745_914)">
    <path d="M16.7695 8C16.7695 3.58172 13.1878 0 8.76953 0C4.35125 0 0.769531 3.58172 0.769531 8C0.769531 11.993 3.695 15.3027 7.51953 15.9028V10.3125H5.48828V8H7.51953V6.2375C7.51953 4.2325 8.71391 3.125 10.5413 3.125C11.4163 3.125 12.332 3.28125 12.332 3.28125V5.25H11.3233C10.3295 5.25 10.0195 5.86672 10.0195 6.5V8H12.2383L11.8836 10.3125H10.0195V15.9028C13.8441 15.3027 16.7695 11.993 16.7695 8Z" fill="white"/>
    <path d="M11.8836 10.3125L12.2383 8H10.0195V6.5C10.0195 5.86734 10.3295 5.25 11.3233 5.25H12.332V3.28125C12.332 3.28125 11.4166 3.125 10.5413 3.125C8.71391 3.125 7.51953 4.2325 7.51953 6.2375V8H5.48828V10.3125H7.51953V15.9028C8.34783 16.0324 9.19124 16.0324 10.0195 15.9028V10.3125H11.8836Z" fill="#222222"/>
  </g>
  <defs>
    <clipPath id="clip0_745_914">
      <rect width="16" height="16" fill="white" transform="translate(0.769531)"/>
    </clipPath>
  </defs>
</svg>