<svg width="32" height="32" viewBox="0 0 32 32" fill="none" xmlns="http://www.w3.org/2000/svg">
<path d="M15.45 2.95295L15.45 2.95294C18.8885 1.1479 22.3754 1.1472 25.531 2.22649C26.3305 2.49995 26.9197 2.77862 27.2623 2.97817C27.6262 3.19018 27.85 3.57957 27.85 4.00069V17.358C27.85 18.2709 26.8601 18.84 26.0712 18.3806C25.8512 18.2525 25.3999 18.0405 24.7653 17.8235L24.7167 17.9654L24.7653 17.8235C22.1799 16.9397 19.3457 16.9388 16.5498 18.4059C13.1994 20.1639 9.80347 20.209 6.71266 19.2123L6.51662 19.1491V19.3551V30.6667C6.51662 31.3202 5.98684 31.85 5.33331 31.85C4.67979 31.85 4.15 31.3202 4.15 30.6666V17.3579V4.00062V1.33331C4.15 0.67978 4.67978 0.15 5.33331 0.15C5.98685 0.15 6.51669 0.679789 6.51669 1.33331V3.16225V3.26278L6.60967 3.30099C6.79117 3.37558 7.00013 3.45496 7.23479 3.53518C9.82006 4.419 12.6543 4.41986 15.45 2.95295ZM25.3333 15.5104L25.3569 15.3604H25.4832V4.83881V4.73833L25.3903 4.7001C25.2088 4.62542 24.9996 4.54597 24.765 4.46576C22.1799 3.58162 19.3457 3.58077 16.5497 5.0485C13.1993 6.80649 9.80332 6.85208 6.7126 5.85549L6.51656 5.79228V5.99825V16.5197V16.6202L6.60953 16.6584C6.791 16.733 7.00016 16.8124 7.23467 16.8926C9.82 17.7764 12.6543 17.7772 15.4501 16.3102C18.763 14.5719 22.1204 14.5078 25.1833 15.4701V15.5104H25.3333H25.3333Z" fill="#1678C0" stroke="white" stroke-width="0.3"/>
</svg>
