<svg xmlns="http://www.w3.org/2000/svg" width="17" height="16" viewBox="0 0 17 16" fill="none">
  <g clip-path="url(#clip0_745_919)">
    <path d="M8.76953 1.44062C10.907 1.44062 11.1602 1.45 12.0008 1.4875C12.782 1.52187 13.2039 1.65313 13.4852 1.7625C13.857 1.90625 14.1258 2.08125 14.4039 2.35938C14.6852 2.64062 14.857 2.90625 15.0008 3.27813C15.1102 3.55938 15.2414 3.98438 15.2758 4.7625C15.3133 5.60625 15.3227 5.85938 15.3227 7.99375C15.3227 10.1313 15.3133 10.3844 15.2758 11.225C15.2414 12.0063 15.1102 12.4281 15.0008 12.7094C14.857 13.0813 14.682 13.35 14.4039 13.6281C14.1227 13.9094 13.857 14.0813 13.4852 14.225C13.2039 14.3344 12.7789 14.4656 12.0008 14.5C11.157 14.5375 10.9039 14.5469 8.76953 14.5469C6.63203 14.5469 6.37891 14.5375 5.53828 14.5C4.75703 14.4656 4.33516 14.3344 4.05391 14.225C3.68203 14.0813 3.41328 13.9063 3.13516 13.6281C2.85391 13.3469 2.68203 13.0813 2.53828 12.7094C2.42891 12.4281 2.29766 12.0031 2.26328 11.225C2.22578 10.3813 2.21641 10.1281 2.21641 7.99375C2.21641 5.85625 2.22578 5.60313 2.26328 4.7625C2.29766 3.98125 2.42891 3.55938 2.53828 3.27813C2.68203 2.90625 2.85703 2.6375 3.13516 2.35938C3.41641 2.07812 3.68203 1.90625 4.05391 1.7625C4.33516 1.65313 4.76016 1.52187 5.53828 1.4875C6.37891 1.45 6.63203 1.44062 8.76953 1.44062ZM8.76953 0C6.59766 0 6.32578 0.009375 5.47266 0.046875C4.62266 0.084375 4.03828 0.221875 3.53203 0.41875C3.00391 0.625 2.55703 0.896875 2.11328 1.34375C1.66641 1.7875 1.39453 2.23438 1.18828 2.75938C0.991406 3.26875 0.853906 3.85 0.816406 4.7C0.778906 5.55625 0.769531 5.82812 0.769531 8C0.769531 10.1719 0.778906 10.4438 0.816406 11.2969C0.853906 12.1469 0.991406 12.7313 1.18828 13.2375C1.39453 13.7656 1.66641 14.2125 2.11328 14.6562C2.55703 15.1 3.00391 15.375 3.52891 15.5781C4.03828 15.775 4.61953 15.9125 5.46953 15.95C6.32266 15.9875 6.59453 15.9969 8.76641 15.9969C10.9383 15.9969 11.2102 15.9875 12.0633 15.95C12.9133 15.9125 13.4977 15.775 14.0039 15.5781C14.5289 15.375 14.9758 15.1 15.4195 14.6562C15.8633 14.2125 16.1383 13.7656 16.3414 13.2406C16.5383 12.7313 16.6758 12.15 16.7133 11.3C16.7508 10.4469 16.7602 10.175 16.7602 8.00313C16.7602 5.83125 16.7508 5.55938 16.7133 4.70625C16.6758 3.85625 16.5383 3.27188 16.3414 2.76562C16.1445 2.23438 15.8727 1.7875 15.4258 1.34375C14.982 0.9 14.5352 0.625 14.0102 0.421875C13.5008 0.225 12.9195 0.0875 12.0695 0.05C11.2133 0.009375 10.9414 0 8.76953 0Z" fill="white"/>
    <path d="M8.76953 3.89062C6.50078 3.89062 4.66016 5.73125 4.66016 8C4.66016 10.2688 6.50078 12.1094 8.76953 12.1094C11.0383 12.1094 12.8789 10.2688 12.8789 8C12.8789 5.73125 11.0383 3.89062 8.76953 3.89062ZM8.76953 10.6656C7.29766 10.6656 6.10391 9.47188 6.10391 8C6.10391 6.52813 7.29766 5.33437 8.76953 5.33437C10.2414 5.33437 11.4352 6.52813 11.4352 8C11.4352 9.47188 10.2414 10.6656 8.76953 10.6656Z" fill="white"/>
    <path d="M14.0008 3.72818C14.0008 4.25943 13.5695 4.68755 13.0414 4.68755C12.5102 4.68755 12.082 4.2563 12.082 3.72818C12.082 3.19692 12.5133 2.7688 13.0414 2.7688C13.5695 2.7688 14.0008 3.20005 14.0008 3.72818Z" fill="white"/>
  </g>
  <defs>
    <clipPath id="clip0_745_919">
      <rect width="16" height="16" fill="white" transform="translate(0.769531)"/>
    </clipPath>
  </defs>
</svg>