<svg xmlns="http://www.w3.org/2000/svg" width="24" height="25" viewBox="0 0 24 25" fill="none">
  <g clip-path="url(#clip0_1_3184)">
    <path d="M4 18.5405H20C20.55 18.5405 21 18.0905 21 17.5405C21 16.9905 20.55 16.5405 20 16.5405H4C3.45 16.5405 3 16.9905 3 17.5405C3 18.0905 3.45 18.5405 4 18.5405ZM4 13.5405H20C20.55 13.5405 21 13.0905 21 12.5405C21 11.9905 20.55 11.5405 20 11.5405H4C3.45 11.5405 3 11.9905 3 12.5405C3 13.0905 3.45 13.5405 4 13.5405ZM3 7.54053C3 8.09053 3.45 8.54053 4 8.54053H20C20.55 8.54053 21 8.09053 21 7.54053C21 6.99053 20.55 6.54053 20 6.54053H4C3.45 6.54053 3 6.99053 3 7.54053Z" fill="white"/>
  </g>
  <defs>
    <clipPath id="clip0_1_3184">
      <rect width="24" height="24" fill="white" transform="translate(0 0.540527)"/>
    </clipPath>
  </defs>
</svg>