<svg width="32" height="32" viewBox="0 0 32 32" fill="none" xmlns="http://www.w3.org/2000/svg">
<g clip-path="url(#clip0_1_1134)">
<path d="M29.815 3.05669C20.0989 -0.182032 20.6962 -0.0261856 20.3755 0.0141195C20.2258 0.032991 20.9325 -0.192218 11.5021 2.95127L2.81991 0.0572366C2.17347 -0.158411 1.50391 0.323563 1.50391 1.00575V23.0017C1.50391 23.4321 1.77929 23.8141 2.18753 23.9502C11.8719 27.1783 11.1793 26.9486 11.2376 26.9647C11.3958 27.008 11.5423 27.0105 11.689 26.9826C11.7928 26.9629 11.3714 27.0986 17.3504 25.1054C17.9963 25.5056 18.7232 25.7865 19.5005 25.9174V31.0003C19.5005 31.5525 19.9481 32.0001 20.5004 32.0001C21.0526 32.0001 21.5002 31.5525 21.5002 31.0003V25.9174C22.2775 25.7865 23.0045 25.5056 23.6503 25.1054L29.1825 26.9497C29.8295 27.1652 30.4986 26.6833 30.4986 26.0012V4.0052C30.4986 3.57484 30.2232 3.19272 29.815 3.05669ZM20.5004 24.0015C18.2952 24.0015 16.5012 22.2074 16.5012 20.0022C16.5012 17.797 18.2952 16.0029 20.5004 16.0029C22.7056 16.0029 24.4997 17.797 24.4997 20.0022C24.4997 22.2074 22.7056 24.0015 20.5004 24.0015ZM3.50354 2.39287L10.5023 4.72575V24.6139L3.50354 22.281V2.39287ZM12.5019 4.72582L19.5006 2.39293V14.0872C15.116 14.8259 13.0212 19.9668 15.6716 23.5573L12.5019 24.614V4.72582ZM28.4989 24.6139L25.3293 23.5572C27.9782 19.9686 25.8881 14.8264 21.5002 14.0871V2.39287L28.4989 4.72575V24.6139Z" fill="#1678C0"/>
</g>
<defs>
<clipPath id="clip0_1_1134">
<rect width="32" height="32" fill="white"/>
</clipPath>
</defs>
</svg>
