<svg xmlns="http://www.w3.org/2000/svg" width="17" height="16" viewBox="0 0 17 16" fill="none">
  <g clip-path="url(#clip0_745_917)">
    <path d="M5.80121 14.5006C11.839 14.5006 15.1414 9.49835 15.1414 5.16043C15.1414 5.01835 15.1414 4.87691 15.1318 4.73611C15.7742 4.27141 16.3288 3.69603 16.7695 3.03691C16.1705 3.30251 15.5349 3.47661 14.8841 3.55339C15.5694 3.14318 16.0823 2.49791 16.3273 1.73771C15.6829 2.12011 14.978 2.38959 14.2428 2.53451C13.7479 2.00823 13.0933 1.65974 12.3803 1.54296C11.6674 1.42619 10.9358 1.54765 10.2988 1.88854C9.66187 2.22944 9.15501 2.77076 8.85669 3.42874C8.55837 4.08672 8.48523 4.82468 8.64857 5.52843C7.34346 5.46296 6.0667 5.12378 4.90117 4.53291C3.73563 3.94204 2.70737 3.11268 1.88313 2.09867C1.46335 2.82133 1.33478 3.67682 1.5236 4.49095C1.71242 5.30508 2.20443 6.01664 2.89945 6.48075C2.37702 6.46544 1.86596 6.3245 1.40953 6.06987V6.11147C1.40974 6.86937 1.6721 7.60386 2.15211 8.19038C2.63213 8.77689 3.30024 9.17931 4.04313 9.32939C3.55985 9.46121 3.05278 9.48048 2.56089 9.38571C2.77074 10.0379 3.17915 10.6083 3.72902 11.017C4.2789 11.4257 4.94275 11.6524 5.62777 11.6654C4.94716 12.2004 4.16774 12.5959 3.33411 12.8294C2.50049 13.0629 1.62901 13.1297 0.769531 13.026C2.27075 13.9894 4.01748 14.5004 5.80121 14.498" fill="white"/>
  </g>
  <defs>
    <clipPath id="clip0_745_917">
      <rect width="16" height="16" fill="white" transform="translate(0.769531)"/>
    </clipPath>
  </defs>
</svg>