<svg width="32" height="32" viewBox="0 0 32 32" fill="none" xmlns="http://www.w3.org/2000/svg">
<g clip-path="url(#clip0_1_1145)">
<path d="M29.6667 32.0001H2.33333C1.04667 32.0001 0 30.9534 0 29.6667V13.0001C0 11.7134 1.04667 10.6667 2.33333 10.6667H29.6667C30.9533 10.6667 32 11.7134 32 13.0001V29.6667C32 30.9534 30.9533 32.0001 29.6667 32.0001ZM2.33333 12.6667C2.14933 12.6667 2 12.8161 2 13.0001V29.6667C2 29.8507 2.14933 30.0001 2.33333 30.0001H29.6667C29.8507 30.0001 30 29.8507 30 29.6667V13.0001C30 12.8161 29.8507 12.6667 29.6667 12.6667H2.33333Z" fill="#1678C0"/>
<path d="M27.3333 6.66667C25.496 6.66667 24 5.172 24 3.33333C24 1.49467 25.496 0 27.3333 0C29.1707 0 30.6667 1.49467 30.6667 3.33333C30.6667 5.172 29.1707 6.66667 27.3333 6.66667ZM27.3333 2C26.5987 2 26 2.59733 26 3.33333C26 4.06933 26.5987 4.66667 27.3333 4.66667C28.068 4.66667 28.6667 4.06933 28.6667 3.33333C28.6667 2.59733 28.068 2 27.3333 2Z" fill="#1678C0"/>
<path d="M30.9989 7.99997C30.7429 7.99997 30.4869 7.90264 30.2922 7.70664L28.4922 5.90664C28.1016 5.51597 28.1016 4.88264 28.4922 4.49197C28.8829 4.10131 29.5162 4.10131 29.9069 4.49197L31.7069 6.29197C32.0975 6.68264 32.0975 7.31597 31.7069 7.70664C31.5109 7.90264 31.2549 7.99997 30.9989 7.99997Z" fill="#1678C0"/>
<path d="M19 8H2.33333C1.04667 8 0 6.95333 0 5.66667V2.33333C0 1.04667 1.04667 0 2.33333 0H19C20.2867 0 21.3333 1.04667 21.3333 2.33333V5.66667C21.3333 6.95333 20.2867 8 19 8ZM2.33333 2C2.14933 2 2 2.14933 2 2.33333V5.66667C2 5.85067 2.14933 6 2.33333 6H19C19.184 6 19.3333 5.85067 19.3333 5.66667V2.33333C19.3333 2.14933 19.184 2 19 2H2.33333Z" fill="#1678C0"/>
<path d="M11 26V20.9739C11 20.6739 11.1346 20.3899 11.3668 20.1999L15.8668 16.5181C16.2351 16.2167 16.7649 16.2167 17.1332 16.5181L21.6332 20.1999C21.8654 20.3899 22 20.6739 22 20.9739V26" stroke="#1678C0" stroke-width="2" stroke-linecap="round"/>
</g>
<defs>
<clipPath id="clip0_1_1145">
<rect width="32" height="32" fill="white"/>
</clipPath>
</defs>
</svg>
