<svg width="116" height="20" viewBox="0 0 116 20" fill="none" xmlns="http://www.w3.org/2000/svg">
<path d="M4.061 19.5322H0V6.2685C0 5.941 0.03275 5.6135 0.131 5.286C0.22925 4.99125 0.42575 4.6965 0.753249 4.46725C1.01525 4.27075 1.2445 4.1725 1.5065 4.107C1.7685 4.07425 2.0305 4.0415 2.2925 4.0415H7.40149C7.56524 4.0415 7.79449 4.0415 8.05649 4.07425C8.31849 4.107 8.58049 4.13975 8.87524 4.238C9.16999 4.33625 9.46474 4.4345 9.75949 4.59825C10.0542 4.762 10.3162 4.99125 10.5782 5.25325C10.8402 5.548 11.0695 5.90825 11.2332 6.2685C11.397 6.62875 11.4952 7.02175 11.5935 7.41475C11.659 7.80775 11.7245 8.20075 11.7245 8.561C11.7572 8.92125 11.7572 9.24875 11.7572 9.5435C11.7572 9.8055 11.7572 10.1003 11.7245 10.4932C11.7245 10.8862 11.6917 11.2792 11.6262 11.705C11.5607 12.1307 11.4952 12.5565 11.3642 12.9822C11.2332 13.408 11.0695 13.801 10.873 14.0957C10.611 14.4887 10.349 14.7835 10.0215 14.98C9.69399 15.2092 9.36649 15.3402 9.03899 15.4712C8.67874 15.5695 8.35124 15.635 8.02374 15.6677C7.69624 15.7005 7.36874 15.7005 7.07399 15.7005H4.061V19.5322ZM5.86225 12.622C6.32075 12.622 6.64825 12.5237 6.8775 12.3272C7.10675 12.1307 7.27049 11.9342 7.36874 11.7377C7.46699 11.5085 7.56524 11.2465 7.56524 10.919C7.59799 10.6242 7.59799 10.264 7.59799 9.90375C7.59799 9.57625 7.59799 9.24875 7.56524 8.98675C7.53249 8.692 7.49974 8.46275 7.40149 8.20075C7.30324 7.9715 7.20499 7.775 7.07399 7.644C6.94299 7.513 6.77924 7.41475 6.64825 7.34925C6.51725 7.28375 6.3535 7.251 6.2225 7.21825C6.0915 7.21825 5.99325 7.1855 5.92775 7.1855H4.48675C4.454 7.1855 4.3885 7.21825 4.323 7.251C4.2575 7.28375 4.192 7.3165 4.15925 7.34925C4.061 7.4475 4.02825 7.5785 4.02825 7.74225V12.622H5.86225Z" fill="white"/>
<path d="M16.8329 4.04224V9.87173C16.8329 10.4285 16.8657 10.8542 16.9312 11.1817C16.9967 11.4765 17.0949 11.7385 17.2259 11.9022C17.3242 12.066 17.4552 12.2297 17.6189 12.328C17.7827 12.4262 17.9137 12.4917 18.0774 12.5245C18.2412 12.5572 18.3722 12.59 18.5359 12.6227C18.6997 12.6227 18.8307 12.6555 18.9617 12.6555H19.7149C20.0424 12.6555 20.2717 12.59 20.4354 12.4262C20.5337 12.2952 20.5992 12.197 20.6319 12.066C20.6319 11.935 20.6647 11.8367 20.6647 11.7057V4.04224H24.7257V13.376C24.7257 13.7035 24.6929 14.031 24.6274 14.3585C24.5619 14.686 24.3654 14.9807 24.0707 15.2427C23.8087 15.5047 23.4812 15.6357 23.1209 15.7012C22.7607 15.7667 22.4987 15.7667 22.2694 15.7667H17.2259C16.4399 15.7667 15.7849 15.6685 15.2937 15.472C14.8352 15.2427 14.4422 15.0135 14.1802 14.7515C13.6234 14.2602 13.2304 13.638 13.0667 12.8847C12.9029 12.1315 12.8047 11.3127 12.8047 10.4285V4.04224H16.8329Z" fill="white"/>
<path d="M29.9985 4.04224V9.87173C29.9985 10.4285 30.0312 10.8542 30.0967 11.1817C30.1622 11.4765 30.2605 11.7385 30.3915 11.9022C30.4897 12.066 30.6207 12.2297 30.7845 12.328C30.9482 12.4262 31.0792 12.4917 31.243 12.5245C31.4067 12.5572 31.5377 12.59 31.7015 12.6227C31.8652 12.6227 31.9962 12.6555 32.1272 12.6555H32.8805C33.208 12.6555 33.4372 12.59 33.601 12.4262C33.6992 12.2952 33.7647 12.197 33.7975 12.066C33.7975 11.935 33.8302 11.8367 33.8302 11.7057V4.04224H37.8912V13.376C37.8912 13.7035 37.8585 14.031 37.7602 14.3585C37.6947 14.686 37.4982 14.9807 37.2035 15.2427C36.9415 15.5047 36.614 15.6357 36.2537 15.7012C35.8935 15.7667 35.6315 15.7667 35.4022 15.7667H30.3915C29.6055 15.7667 28.9505 15.6685 28.4592 15.472C27.968 15.2755 27.575 15.0462 27.313 14.7842C26.7562 14.293 26.3632 13.6707 26.1995 12.9175C26.003 12.1642 25.9375 11.3455 25.9375 10.4612V4.04224H29.9985Z" fill="white"/>
<path d="M39.1364 8.88892C39.1364 8.59417 39.1692 8.29942 39.2019 7.97192C39.2347 7.64442 39.3002 7.31692 39.3984 6.95667C39.4967 6.59642 39.6277 6.26892 39.8242 5.97417C40.0207 5.64667 40.2499 5.35192 40.5447 5.08992C40.8722 4.82792 41.1997 4.63142 41.5599 4.50042C41.9202 4.36942 42.2804 4.27117 42.6734 4.20567C43.0337 4.14017 43.3939 4.10742 43.7214 4.10742C44.0489 4.10742 44.3764 4.10742 44.6384 4.10742L47.3239 4.17292L47.2584 7.21867L45.8502 7.18592C45.4572 7.18592 45.0642 7.21867 44.7039 7.31692C44.3437 7.41517 44.0489 7.64442 43.7542 8.00467C43.5249 8.33217 43.3612 8.69242 43.2957 9.11817C43.2302 9.51117 43.1974 9.90417 43.1647 10.2317L43.0337 15.8319L38.9727 15.6682L39.1364 8.88892Z" fill="white"/>
<path d="M47.6857 12.623H53.6789C53.7772 12.623 53.8427 12.5902 53.9409 12.5247C54.0064 12.492 54.0392 12.3937 54.0392 12.2955C54.0392 12.23 54.0064 12.1645 53.9737 12.1317C53.9409 12.099 53.8754 12.0662 53.8427 12.0335C53.7772 12.0007 53.6462 11.9352 53.4824 11.9025C53.3187 11.837 53.0239 11.7387 52.5982 11.575L50.2402 10.7562C49.7489 10.5925 49.2904 10.3632 48.8974 10.134C48.5044 9.90473 48.1769 9.57723 47.9804 9.21698C47.8167 8.92223 47.7184 8.62748 47.6529 8.23448C47.5874 7.87423 47.5547 7.54673 47.5547 7.25198C47.5547 6.89173 47.5874 6.53148 47.6529 6.17123C47.7184 5.81098 47.8494 5.48348 48.0459 5.15598C48.3407 4.69748 48.7009 4.36998 49.0939 4.23898C49.5197 4.10798 50.0109 4.04248 50.6004 4.04248H57.9364V7.05548H51.9432C51.8777 7.05548 51.8122 7.05548 51.7139 7.05548C51.6157 7.05548 51.5502 7.05548 51.4519 7.08823C51.3864 7.08823 51.3537 7.12098 51.3209 7.15373C51.2882 7.18648 51.2554 7.21923 51.2554 7.28473C51.2554 7.38298 51.2882 7.44848 51.3209 7.44848C51.3537 7.48123 51.4192 7.51398 51.4847 7.54673C51.6157 7.57948 51.7139 7.61223 51.7467 7.64498C51.8122 7.67773 51.8449 7.67773 51.8777 7.71048C51.9104 7.74323 51.9759 7.74323 52.0087 7.77598C52.0742 7.80873 52.1397 7.84148 52.2707 7.87423L55.0544 8.85673C55.6439 9.05323 56.1352 9.28248 56.5609 9.51173C56.9867 9.74098 57.3142 10.0357 57.5762 10.4615C57.8382 10.8545 58.0019 11.2802 58.0674 11.706C58.1329 12.1317 58.1657 12.4592 58.1657 12.7212C58.1657 13.147 58.1002 13.6055 58.0019 14.064C57.8709 14.5225 57.6417 14.9155 57.2487 15.243C56.9539 15.505 56.6592 15.636 56.3317 15.7015C56.0042 15.767 55.7094 15.7997 55.4474 15.7997H47.5874V12.623H47.6857Z" fill="white"/>
<path d="M63.3383 19.5323H59.2773V6.26854C59.2773 5.94104 59.3101 5.61354 59.4083 5.28604C59.5066 4.99129 59.7031 4.69654 60.0306 4.43454C60.2926 4.23804 60.5218 4.13979 60.7838 4.07429C61.0458 4.04154 61.3078 4.00879 61.5698 4.00879H66.6788C66.8426 4.00879 67.0718 4.00879 67.3338 4.04154C67.5958 4.07429 67.8578 4.10704 68.1526 4.20529C68.4473 4.30354 68.7421 4.40179 69.0368 4.56554C69.3316 4.72929 69.5936 4.95854 69.8556 5.22054C70.1176 5.51529 70.3468 5.87554 70.5106 6.23579C70.6743 6.59604 70.7726 6.98904 70.8708 7.38204C70.9363 7.77504 71.0018 8.16804 71.0018 8.52829C71.0346 8.88854 71.0346 9.21604 71.0346 9.51079C71.0346 9.77279 71.0346 10.0675 71.0018 10.4605C71.0018 10.8535 70.9691 11.2465 70.9036 11.6723C70.8381 12.098 70.7726 12.5238 70.6416 12.9495C70.5106 13.3753 70.3468 13.7683 70.1503 14.063C69.8883 14.456 69.6263 14.7508 69.2988 14.9473C68.9713 15.1765 68.6438 15.3075 68.3163 15.4385C67.9561 15.5368 67.6286 15.6023 67.3011 15.635C66.9736 15.6678 66.6461 15.6678 66.3513 15.6678H63.3383V19.5323ZM65.1396 12.622C65.5981 12.622 65.9256 12.5238 66.1548 12.3273C66.3841 12.1308 66.5478 11.9343 66.6461 11.7378C66.7443 11.5085 66.8426 11.2465 66.8426 10.919C66.8753 10.6243 66.8753 10.264 66.8753 9.90379C66.8753 9.57629 66.8753 9.24879 66.8426 8.98679C66.8098 8.69204 66.7771 8.46279 66.6788 8.20079C66.5806 7.97154 66.4823 7.77504 66.3513 7.64404C66.2203 7.51304 66.0566 7.41479 65.9256 7.34929C65.7946 7.28379 65.6308 7.25104 65.4998 7.21829C65.3688 7.21829 65.2706 7.18554 65.2051 7.18554H63.7641C63.7313 7.18554 63.6658 7.21829 63.6003 7.25104C63.5348 7.28379 63.4693 7.31654 63.4366 7.34929C63.3383 7.44754 63.3056 7.57854 63.3056 7.74229V12.622H65.1396Z" fill="white"/>
<path d="M79.8441 4.04154C80.5318 4.04154 81.0886 4.13979 81.5471 4.36904C82.0056 4.59829 82.3331 4.82754 82.5623 5.05679C82.7916 5.28604 82.9553 5.54804 83.1191 5.84279C83.2501 6.13754 83.3811 6.43229 83.4466 6.69429C83.5121 6.98904 83.5776 7.28379 83.5776 7.54579C83.6103 7.84054 83.6103 8.10254 83.6103 8.33179V13.2443C83.6103 13.539 83.5776 13.8665 83.5121 14.194C83.4466 14.5215 83.3156 14.8163 83.0536 15.111C82.7916 15.4058 82.4968 15.5695 82.1693 15.635C81.8418 15.7005 81.5143 15.7333 81.1868 15.7333H74.7023C74.3421 15.7333 74.0146 15.7005 73.6543 15.635C73.2941 15.5695 72.9666 15.4058 72.7046 15.111C72.5081 14.9145 72.3443 14.6525 72.2133 14.3905C72.0823 14.0958 71.9841 13.8338 71.9513 13.5063C71.8858 13.2115 71.8531 12.9168 71.8531 12.622C71.8531 12.3273 71.8203 12.0653 71.8203 11.836C71.8203 11.574 71.8203 11.312 71.8531 11.05C71.8858 10.788 71.9186 10.4933 71.9841 10.2313C72.0496 9.96929 72.1478 9.70729 72.2788 9.47804C72.4098 9.24879 72.5736 9.05229 72.8028 8.85579C73.0976 8.59379 73.4251 8.46279 73.7526 8.39729C74.0801 8.36454 74.4076 8.33179 74.7351 8.33179H79.5493V8.16804C79.5493 8.06979 79.5493 7.93879 79.5166 7.80779C79.4838 7.67679 79.4511 7.54579 79.3528 7.38204C79.1891 7.15279 78.9926 7.02179 78.7633 6.98904C78.5341 6.95629 78.3048 6.92354 78.1083 6.92354H72.5736V4.00879H79.8441V4.04154ZM76.6346 11.1483C76.5691 11.1483 76.4708 11.1483 76.3398 11.181C76.2088 11.2138 76.1106 11.2465 76.0123 11.3448C75.9468 11.4103 75.9141 11.5085 75.8813 11.6068C75.8486 11.705 75.8486 11.8033 75.8486 11.9015C75.8486 11.9998 75.8486 12.0653 75.8813 12.1635C75.9141 12.2618 75.9468 12.3273 76.0123 12.3928C76.0778 12.4583 76.1761 12.5238 76.2743 12.5565C76.3726 12.5893 76.4708 12.5893 76.5691 12.5893H78.6978C78.7961 12.5893 78.9271 12.5893 79.0253 12.5565C79.1236 12.5238 79.2218 12.491 79.2873 12.4255C79.3856 12.36 79.4511 12.2618 79.4511 12.1635C79.4838 12.0653 79.4838 11.967 79.4838 11.8688V11.1483H76.6346Z" fill="white"/>
<path d="M84.8242 6.1375C84.8242 5.90825 84.857 5.679 84.8897 5.417C84.9225 5.155 85.0535 4.92575 85.2827 4.6965C85.4465 4.53275 85.6102 4.40175 85.8067 4.3035C86.0032 4.20525 86.2325 4.13975 86.4617 4.107C86.691 4.07425 86.8875 4.0415 87.1167 4.0415C87.346 4.0415 87.5097 4.0415 87.6735 4.0415H91.5052C92.1275 4.0415 92.7825 4.107 93.4047 4.20525C94.027 4.3035 94.6492 4.59825 95.206 5.0895C95.5007 5.3515 95.7627 5.64625 95.9265 5.941C96.0902 6.23575 96.254 6.5305 96.3522 6.858C96.4505 7.15275 96.516 7.48025 96.5487 7.775C96.5815 8.06975 96.5815 8.33175 96.5815 8.59375V15.7987H92.5205V9.8055C92.5205 9.37975 92.4877 9.0195 92.4222 8.692C92.3567 8.3645 92.2257 8.06975 92.062 7.80775C91.8982 7.54575 91.669 7.382 91.407 7.251C91.145 7.15275 90.8175 7.08725 90.3917 7.08725H89.6712C89.573 7.08725 89.5075 7.08725 89.3765 7.12C89.2782 7.15275 89.18 7.1855 89.0817 7.251C88.9835 7.34925 88.918 7.4475 88.918 7.5785C88.918 7.67675 88.918 7.80775 88.918 7.906V15.7332H84.857V6.1375H84.8242Z" fill="white"/>
<path d="M95.5312 16.7154C96.1207 16.7154 96.5793 16.7154 96.9068 16.6171C97.2343 16.5516 97.529 16.3879 97.8237 16.1586C98.0857 15.9294 98.2822 15.6674 98.446 15.3399C98.577 15.0124 98.6753 14.5539 98.6753 13.9316V4.04115H102.736V14.8486C102.736 15.1106 102.736 15.4054 102.703 15.7329C102.671 16.0604 102.605 16.4206 102.507 16.7809C102.409 17.1411 102.245 17.4686 102.016 17.7961C101.787 18.1236 101.525 18.4184 101.164 18.6804C100.64 19.0406 99.9525 19.3026 99.0683 19.4009C98.184 19.4991 97.0378 19.5646 95.564 19.5319V16.7154H95.5312ZM98.6753 2.86215V0.274902H102.736V2.86215H98.6753Z" fill="white"/>
<path d="M108.204 15.7674C107.778 15.7674 107.385 15.7674 107.025 15.7346C106.665 15.7346 106.304 15.6691 105.977 15.5709C105.649 15.4726 105.355 15.3089 105.06 15.1124C104.765 14.9159 104.536 14.6211 104.307 14.2281C104.078 13.8024 103.914 13.2456 103.848 12.5906C103.783 11.9356 103.75 11.0841 103.75 10.0034C103.75 9.4794 103.75 8.9554 103.75 8.46415C103.75 7.9729 103.783 7.5144 103.816 7.08865C103.881 6.6629 103.946 6.2699 104.077 5.9424C104.208 5.58215 104.405 5.2874 104.634 5.0254C104.896 4.73065 105.191 4.53415 105.584 4.3704C105.977 4.20665 106.37 4.1084 106.828 4.0429C107.287 3.9774 107.778 3.9119 108.269 3.9119C108.761 3.9119 109.285 3.87915 109.809 3.87915C110.922 3.87915 111.872 3.9119 112.592 3.9774C113.313 4.0429 113.902 4.27215 114.361 4.66515C114.623 4.8944 114.819 5.1564 114.983 5.4839C115.147 5.8114 115.278 6.1389 115.343 6.49915C115.442 6.8594 115.474 7.21965 115.507 7.5799C115.54 7.94015 115.54 8.26765 115.54 8.59515C115.54 8.98815 115.507 9.38115 115.442 9.7414C115.376 10.1344 115.18 10.4619 114.885 10.7239C114.721 10.8876 114.525 10.9859 114.361 11.0186C114.197 11.0514 114.001 11.0514 113.804 11.0514H107.811C107.811 11.2151 107.811 11.3789 107.844 11.5754C107.876 11.7391 107.942 11.9029 108.007 12.0339C108.171 12.3286 108.433 12.4924 108.793 12.5251C109.121 12.5579 109.481 12.5906 109.841 12.5906H115.18V15.7346H108.204V15.7674ZM110.824 8.3659C111.119 8.3659 111.282 8.3004 111.381 8.13665C111.446 8.00565 111.512 7.8419 111.512 7.74365C111.512 7.5799 111.446 7.41615 111.381 7.28515C111.282 7.15415 111.086 7.02315 110.791 6.95765C110.627 6.9249 110.431 6.89215 110.202 6.89215C109.973 6.89215 109.809 6.8594 109.711 6.8594C109.481 6.8594 109.219 6.8594 108.957 6.89215C108.695 6.9249 108.466 6.95765 108.302 7.0559C108.106 7.1869 107.975 7.35065 107.909 7.5799C107.844 7.80915 107.844 8.07115 107.876 8.3659H110.824Z" fill="white"/>
</svg>
