<svg width="116" height="22" viewBox="0 0 116 22" fill="none" xmlns="http://www.w3.org/2000/svg">
<path d="M4.061 21.2622H0V7.99848C0 7.67098 0.03275 7.34348 0.131 7.01598C0.22925 6.72123 0.42575 6.42648 0.753249 6.19723C1.01525 6.00073 1.2445 5.90248 1.5065 5.83698C1.7685 5.80423 2.0305 5.77148 2.2925 5.77148H7.40149C7.56524 5.77148 7.79449 5.77148 8.05649 5.80423C8.31849 5.83698 8.58049 5.86973 8.87524 5.96798C9.16999 6.06623 9.46474 6.16448 9.75949 6.32823C10.0542 6.49198 10.3162 6.72123 10.5782 6.98323C10.8402 7.27798 11.0695 7.63823 11.2332 7.99848C11.397 8.35873 11.4952 8.75173 11.5935 9.14473C11.659 9.53773 11.7245 9.93073 11.7245 10.291C11.7572 10.6512 11.7572 10.9787 11.7572 11.2735C11.7572 11.5355 11.7572 11.8302 11.7245 12.2232C11.7245 12.6162 11.6917 13.0092 11.6262 13.435C11.5607 13.8607 11.4952 14.2865 11.3642 14.7122C11.2332 15.138 11.0695 15.531 10.873 15.8257C10.611 16.2187 10.349 16.5135 10.0215 16.71C9.69399 16.9392 9.36649 17.0702 9.03899 17.2012C8.67874 17.2995 8.35124 17.365 8.02374 17.3977C7.69624 17.4305 7.36874 17.4305 7.07399 17.4305H4.061V21.2622ZM5.86225 14.352C6.32075 14.352 6.64825 14.2537 6.8775 14.0572C7.10675 13.8607 7.27049 13.6642 7.36874 13.4677C7.46699 13.2385 7.56524 12.9765 7.56524 12.649C7.59799 12.3542 7.59799 11.994 7.59799 11.6337C7.59799 11.3062 7.59799 10.9787 7.56524 10.7167C7.53249 10.422 7.49974 10.1927 7.40149 9.93073C7.30324 9.70148 7.20499 9.50498 7.07399 9.37398C6.94299 9.24298 6.77924 9.14473 6.64825 9.07923C6.51725 9.01373 6.3535 8.98098 6.2225 8.94823C6.0915 8.94823 5.99325 8.91548 5.92775 8.91548H4.48675C4.454 8.91548 4.3885 8.94823 4.323 8.98098C4.2575 9.01373 4.192 9.04648 4.15925 9.07923C4.061 9.17748 4.02825 9.30848 4.02825 9.47223V14.352H5.86225Z" fill="#050505"/>
<path d="M16.8329 5.77197V11.6015C16.8329 12.1582 16.8657 12.584 16.9312 12.9115C16.9967 13.2062 17.0949 13.4682 17.2259 13.632C17.3242 13.7957 17.4552 13.9595 17.6189 14.0577C17.7827 14.156 17.9137 14.2215 18.0774 14.2542C18.2412 14.287 18.3722 14.3197 18.5359 14.3525C18.6997 14.3525 18.8307 14.3852 18.9617 14.3852H19.7149C20.0424 14.3852 20.2717 14.3197 20.4354 14.156C20.5337 14.025 20.5992 13.9267 20.6319 13.7957C20.6319 13.6647 20.6647 13.5665 20.6647 13.4355V5.77197H24.7257V15.1057C24.7257 15.4332 24.6929 15.7607 24.6274 16.0882C24.5619 16.4157 24.3654 16.7105 24.0707 16.9725C23.8087 17.2345 23.4812 17.3655 23.1209 17.431C22.7607 17.4965 22.4987 17.4965 22.2694 17.4965H17.2259C16.4399 17.4965 15.7849 17.3982 15.2937 17.2017C14.8352 16.9725 14.4422 16.7432 14.1802 16.4812C13.6234 15.99 13.2304 15.3677 13.0667 14.6145C12.9029 13.8612 12.8047 13.0425 12.8047 12.1582V5.77197H16.8329Z" fill="#050505"/>
<path d="M29.9985 5.77197V11.6015C29.9985 12.1582 30.0312 12.584 30.0967 12.9115C30.1622 13.2062 30.2605 13.4682 30.3915 13.632C30.4897 13.7957 30.6207 13.9595 30.7845 14.0577C30.9482 14.156 31.0792 14.2215 31.243 14.2542C31.4067 14.287 31.5377 14.3197 31.7015 14.3525C31.8652 14.3525 31.9962 14.3852 32.1272 14.3852H32.8805C33.208 14.3852 33.4372 14.3197 33.601 14.156C33.6992 14.025 33.7647 13.9267 33.7975 13.7957C33.7975 13.6647 33.8302 13.5665 33.8302 13.4355V5.77197H37.8912V15.1057C37.8912 15.4332 37.8585 15.7607 37.7602 16.0882C37.6947 16.4157 37.4982 16.7105 37.2035 16.9725C36.9415 17.2345 36.614 17.3655 36.2537 17.431C35.8935 17.4965 35.6315 17.4965 35.4022 17.4965H30.3915C29.6055 17.4965 28.9505 17.3982 28.4592 17.2017C27.968 17.0052 27.575 16.776 27.313 16.514C26.7562 16.0227 26.3632 15.4005 26.1995 14.6472C26.003 13.894 25.9375 13.0752 25.9375 12.191V5.77197H29.9985Z" fill="#050505"/>
<path d="M39.1364 10.6189C39.1364 10.3241 39.1692 10.0294 39.2019 9.7019C39.2347 9.3744 39.3002 9.0469 39.3984 8.68665C39.4967 8.3264 39.6277 7.9989 39.8242 7.70415C40.0207 7.37665 40.2499 7.0819 40.5447 6.8199C40.8722 6.5579 41.1997 6.3614 41.5599 6.2304C41.9202 6.0994 42.2804 6.00115 42.6734 5.93565C43.0337 5.87015 43.3939 5.8374 43.7214 5.8374C44.0489 5.8374 44.3764 5.8374 44.6384 5.8374L47.3239 5.9029L47.2584 8.94865L45.8502 8.9159C45.4572 8.9159 45.0642 8.94865 44.7039 9.0469C44.3437 9.14515 44.0489 9.3744 43.7542 9.73465C43.5249 10.0622 43.3612 10.4224 43.2957 10.8481C43.2302 11.2411 43.1974 11.6341 43.1647 11.9616L43.0337 17.5619L38.9727 17.3981L39.1364 10.6189Z" fill="#050505"/>
<path d="M47.6857 14.353H53.6789C53.7772 14.353 53.8427 14.3202 53.9409 14.2547C54.0064 14.222 54.0392 14.1237 54.0392 14.0255C54.0392 13.96 54.0064 13.8945 53.9737 13.8617C53.9409 13.829 53.8754 13.7962 53.8427 13.7635C53.7772 13.7307 53.6462 13.6652 53.4824 13.6325C53.3187 13.567 53.0239 13.4687 52.5982 13.305L50.2402 12.4862C49.7489 12.3225 49.2904 12.0932 48.8974 11.864C48.5044 11.6347 48.1769 11.3072 47.9804 10.947C47.8167 10.6522 47.7184 10.3575 47.6529 9.96446C47.5874 9.60421 47.5547 9.27671 47.5547 8.98196C47.5547 8.62171 47.5874 8.26146 47.6529 7.90121C47.7184 7.54096 47.8494 7.21346 48.0459 6.88596C48.3407 6.42746 48.7009 6.09996 49.0939 5.96896C49.5197 5.83796 50.0109 5.77246 50.6004 5.77246H57.9364V8.78546H51.9432C51.8777 8.78546 51.8122 8.78546 51.7139 8.78546C51.6157 8.78546 51.5502 8.78546 51.4519 8.81821C51.3864 8.81821 51.3537 8.85096 51.3209 8.88371C51.2882 8.91646 51.2554 8.94921 51.2554 9.01471C51.2554 9.11296 51.2882 9.17846 51.3209 9.17846C51.3537 9.21121 51.4192 9.24396 51.4847 9.27671C51.6157 9.30946 51.7139 9.34221 51.7467 9.37496C51.8122 9.40771 51.8449 9.40771 51.8777 9.44046C51.9104 9.47321 51.9759 9.47321 52.0087 9.50596C52.0742 9.53871 52.1397 9.57146 52.2707 9.60421L55.0544 10.5867C55.6439 10.7832 56.1352 11.0125 56.5609 11.2417C56.9867 11.471 57.3142 11.7657 57.5762 12.1915C57.8382 12.5845 58.0019 13.0102 58.0674 13.436C58.1329 13.8617 58.1657 14.1892 58.1657 14.4512C58.1657 14.877 58.1002 15.3355 58.0019 15.794C57.8709 16.2525 57.6417 16.6455 57.2487 16.973C56.9539 17.235 56.6592 17.366 56.3317 17.4315C56.0042 17.497 55.7094 17.5297 55.4474 17.5297H47.5874V14.353H47.6857Z" fill="#050505"/>
<path d="M63.3383 21.2623H59.2773V7.99852C59.2773 7.67102 59.3101 7.34352 59.4083 7.01602C59.5066 6.72127 59.7031 6.42652 60.0306 6.16452C60.2926 5.96802 60.5218 5.86977 60.7838 5.80427C61.0458 5.77152 61.3078 5.73877 61.5698 5.73877H66.6788C66.8426 5.73877 67.0718 5.73877 67.3338 5.77152C67.5958 5.80427 67.8578 5.83702 68.1526 5.93527C68.4473 6.03352 68.7421 6.13177 69.0368 6.29552C69.3316 6.45927 69.5936 6.68852 69.8556 6.95052C70.1176 7.24527 70.3468 7.60552 70.5106 7.96577C70.6743 8.32602 70.7726 8.71902 70.8708 9.11202C70.9363 9.50502 71.0018 9.89802 71.0018 10.2583C71.0346 10.6185 71.0346 10.946 71.0346 11.2408C71.0346 11.5028 71.0346 11.7975 71.0018 12.1905C71.0018 12.5835 70.9691 12.9765 70.9036 13.4023C70.8381 13.828 70.7726 14.2538 70.6416 14.6795C70.5106 15.1053 70.3468 15.4983 70.1503 15.793C69.8883 16.186 69.6263 16.4808 69.2988 16.6773C68.9713 16.9065 68.6438 17.0375 68.3163 17.1685C67.9561 17.2668 67.6286 17.3323 67.3011 17.365C66.9736 17.3978 66.6461 17.3978 66.3513 17.3978H63.3383V21.2623ZM65.1396 14.352C65.5981 14.352 65.9256 14.2538 66.1548 14.0573C66.3841 13.8608 66.5478 13.6643 66.6461 13.4678C66.7443 13.2385 66.8426 12.9765 66.8426 12.649C66.8753 12.3543 66.8753 11.994 66.8753 11.6338C66.8753 11.3063 66.8753 10.9788 66.8426 10.7168C66.8098 10.422 66.7771 10.1928 66.6788 9.93077C66.5806 9.70152 66.4823 9.50502 66.3513 9.37402C66.2203 9.24302 66.0566 9.14477 65.9256 9.07927C65.7946 9.01377 65.6308 8.98102 65.4998 8.94827C65.3688 8.94827 65.2706 8.91552 65.2051 8.91552H63.7641C63.7313 8.91552 63.6658 8.94827 63.6003 8.98102C63.5348 9.01377 63.4693 9.04652 63.4366 9.07927C63.3383 9.17752 63.3056 9.30852 63.3056 9.47227V14.352H65.1396Z" fill="#050505"/>
<path d="M79.8441 5.77152C80.5318 5.77152 81.0886 5.86977 81.5471 6.09902C82.0056 6.32827 82.3331 6.55752 82.5623 6.78677C82.7916 7.01602 82.9553 7.27802 83.1191 7.57277C83.2501 7.86752 83.3811 8.16227 83.4466 8.42427C83.5121 8.71902 83.5776 9.01377 83.5776 9.27577C83.6103 9.57052 83.6103 9.83252 83.6103 10.0618V14.9743C83.6103 15.269 83.5776 15.5965 83.5121 15.924C83.4466 16.2515 83.3156 16.5463 83.0536 16.841C82.7916 17.1358 82.4968 17.2995 82.1693 17.365C81.8418 17.4305 81.5143 17.4633 81.1868 17.4633H74.7023C74.3421 17.4633 74.0146 17.4305 73.6543 17.365C73.2941 17.2995 72.9666 17.1358 72.7046 16.841C72.5081 16.6445 72.3443 16.3825 72.2133 16.1205C72.0823 15.8258 71.9841 15.5638 71.9513 15.2363C71.8858 14.9415 71.8531 14.6468 71.8531 14.352C71.8531 14.0573 71.8203 13.7953 71.8203 13.566C71.8203 13.304 71.8203 13.042 71.8531 12.78C71.8858 12.518 71.9186 12.2233 71.9841 11.9613C72.0496 11.6993 72.1478 11.4373 72.2788 11.208C72.4098 10.9788 72.5736 10.7823 72.8028 10.5858C73.0976 10.3238 73.4251 10.1928 73.7526 10.1273C74.0801 10.0945 74.4076 10.0618 74.7351 10.0618H79.5493V9.89802C79.5493 9.79977 79.5493 9.66877 79.5166 9.53777C79.4838 9.40677 79.4511 9.27577 79.3528 9.11202C79.1891 8.88277 78.9926 8.75177 78.7633 8.71902C78.5341 8.68627 78.3048 8.65352 78.1083 8.65352H72.5736V5.73877H79.8441V5.77152ZM76.6346 12.8783C76.5691 12.8783 76.4708 12.8783 76.3398 12.911C76.2088 12.9438 76.1106 12.9765 76.0123 13.0748C75.9468 13.1403 75.9141 13.2385 75.8813 13.3368C75.8486 13.435 75.8486 13.5333 75.8486 13.6315C75.8486 13.7298 75.8486 13.7953 75.8813 13.8935C75.9141 13.9918 75.9468 14.0573 76.0123 14.1228C76.0778 14.1883 76.1761 14.2538 76.2743 14.2865C76.3726 14.3193 76.4708 14.3193 76.5691 14.3193H78.6978C78.7961 14.3193 78.9271 14.3193 79.0253 14.2865C79.1236 14.2538 79.2218 14.221 79.2873 14.1555C79.3856 14.09 79.4511 13.9918 79.4511 13.8935C79.4838 13.7953 79.4838 13.697 79.4838 13.5988V12.8783H76.6346Z" fill="#050505"/>
<path d="M84.8242 7.86748C84.8242 7.63823 84.857 7.40898 84.8897 7.14698C84.9225 6.88498 85.0535 6.65573 85.2827 6.42648C85.4465 6.26273 85.6102 6.13173 85.8067 6.03348C86.0032 5.93523 86.2325 5.86973 86.4617 5.83698C86.691 5.80423 86.8875 5.77148 87.1167 5.77148C87.346 5.77148 87.5097 5.77148 87.6735 5.77148H91.5052C92.1275 5.77148 92.7825 5.83698 93.4047 5.93523C94.027 6.03348 94.6492 6.32823 95.206 6.81948C95.5007 7.08148 95.7627 7.37623 95.9265 7.67098C96.0902 7.96573 96.254 8.26048 96.3522 8.58798C96.4505 8.88273 96.516 9.21023 96.5487 9.50498C96.5815 9.79973 96.5815 10.0617 96.5815 10.3237V17.5287H92.5205V11.5355C92.5205 11.1097 92.4877 10.7495 92.4222 10.422C92.3567 10.0945 92.2257 9.79973 92.062 9.53773C91.8982 9.27573 91.669 9.11198 91.407 8.98098C91.145 8.88273 90.8175 8.81723 90.3917 8.81723H89.6712C89.573 8.81723 89.5075 8.81723 89.3765 8.84998C89.2782 8.88273 89.18 8.91548 89.0817 8.98098C88.9835 9.07923 88.918 9.17748 88.918 9.30848C88.918 9.40673 88.918 9.53773 88.918 9.63598V17.4632H84.857V7.86748H84.8242Z" fill="#050505"/>
<path d="M95.5312 18.4454C96.1207 18.4454 96.5793 18.4454 96.9068 18.3471C97.2343 18.2816 97.529 18.1179 97.8237 17.8886C98.0857 17.6594 98.2822 17.3974 98.446 17.0699C98.577 16.7424 98.6753 16.2839 98.6753 15.6616V5.77113H102.736V16.5786C102.736 16.8406 102.736 17.1354 102.703 17.4629C102.671 17.7904 102.605 18.1506 102.507 18.5109C102.409 18.8711 102.245 19.1986 102.016 19.5261C101.787 19.8536 101.525 20.1484 101.164 20.4104C100.64 20.7706 99.9525 21.0326 99.0683 21.1309C98.184 21.2291 97.0378 21.2946 95.564 21.2619V18.4454H95.5312ZM98.6753 4.59213V2.00488H102.736V4.59213H98.6753Z" fill="#050505"/>
<path d="M108.204 17.4971C107.778 17.4971 107.385 17.4971 107.025 17.4644C106.665 17.4644 106.304 17.3989 105.977 17.3006C105.649 17.2024 105.355 17.0386 105.06 16.8421C104.765 16.6456 104.536 16.3509 104.307 15.9579C104.078 15.5321 103.914 14.9754 103.848 14.3204C103.783 13.6654 103.75 12.8139 103.75 11.7331C103.75 11.2091 103.75 10.6851 103.75 10.1939C103.75 9.70263 103.783 9.24413 103.816 8.81838C103.881 8.39263 103.946 7.99963 104.077 7.67214C104.208 7.31189 104.405 7.01714 104.634 6.75514C104.896 6.46039 105.191 6.26389 105.584 6.10014C105.977 5.93639 106.37 5.83814 106.828 5.77264C107.287 5.70714 107.778 5.64164 108.269 5.64164C108.761 5.64164 109.285 5.60889 109.809 5.60889C110.922 5.60889 111.872 5.64164 112.592 5.70714C113.313 5.77264 113.902 6.00189 114.361 6.39489C114.623 6.62414 114.819 6.88614 114.983 7.21364C115.147 7.54114 115.278 7.86864 115.343 8.22889C115.442 8.58913 115.474 8.94938 115.507 9.30963C115.54 9.66988 115.54 9.99738 115.54 10.3249C115.54 10.7179 115.507 11.1109 115.442 11.4711C115.376 11.8641 115.18 12.1916 114.885 12.4536C114.721 12.6174 114.525 12.7156 114.361 12.7484C114.197 12.7811 114.001 12.7811 113.804 12.7811H107.811C107.811 12.9449 107.811 13.1086 107.844 13.3051C107.876 13.4689 107.942 13.6326 108.007 13.7636C108.171 14.0584 108.433 14.2221 108.793 14.2549C109.121 14.2876 109.481 14.3204 109.841 14.3204H115.18V17.4644H108.204V17.4971ZM110.824 10.0956C111.119 10.0956 111.282 10.0301 111.381 9.86638C111.446 9.73538 111.512 9.57163 111.512 9.47338C111.512 9.30963 111.446 9.14588 111.381 9.01488C111.282 8.88388 111.086 8.75288 110.791 8.68738C110.627 8.65463 110.431 8.62189 110.202 8.62189C109.973 8.62189 109.809 8.58914 109.711 8.58914C109.481 8.58914 109.219 8.58914 108.957 8.62189C108.695 8.65464 108.466 8.68739 108.302 8.78563C108.106 8.91664 107.975 9.08038 107.909 9.30963C107.844 9.53888 107.844 9.80088 107.876 10.0956H110.824Z" fill="#050505"/>
<path d="M115.769 2.53297C115.769 3.58989 114.961 4.39812 113.904 4.39812C112.847 4.39812 112.039 3.58989 112.039 2.53297C112.039 1.47604 112.847 0.72998 113.966 0.72998C114.961 0.72998 115.769 1.53822 115.769 2.53297ZM112.474 2.53297C112.474 3.3412 113.096 4.02509 113.904 4.02509C114.712 4.02509 115.272 3.40337 115.272 2.59514C115.272 1.7869 114.65 1.10301 113.842 1.10301C113.096 1.10301 112.474 1.7869 112.474 2.53297ZM113.593 3.52772H113.158V1.66256C113.345 1.66256 113.531 1.60039 113.842 1.60039C114.215 1.60039 114.339 1.66256 114.464 1.72473C114.588 1.7869 114.65 1.91125 114.65 2.09776C114.65 2.34645 114.464 2.47079 114.277 2.53297C114.464 2.59514 114.526 2.71948 114.588 2.96817C114.65 3.21686 114.712 3.3412 114.712 3.40337H114.277C114.215 3.3412 114.215 3.15468 114.153 2.96817C114.091 2.78165 114.029 2.71948 113.78 2.71948H113.593V3.52772ZM113.593 2.47079H113.78C114.029 2.47079 114.215 2.40862 114.215 2.22211C114.215 2.03559 114.091 1.97342 113.842 1.97342C113.718 1.97342 113.656 1.97342 113.593 1.97342V2.47079Z" fill="#050505"/>
</svg>
